<svg xmlns="http://www.w3.org/2000/svg" xmlns:xlink="http://www.w3.org/1999/xlink" viewBox="0 0 480.878 394.767"><defs><style>.cls-1,.cls-10{fill:#ffce68;}.cls-2{fill:#47648f;}.cls-3{fill:#798ec9;}.cls-4{fill:#ffd555;}.cls-5{fill:#dd7e62;}.cls-6{fill:#ffeaaa;}.cls-7{fill:#ffd1bb;}.cls-8{isolation:isolate;}.cls-18,.cls-9{fill:#abd5e6;}.cls-10,.cls-9{opacity:0.3;}.cls-11,.cls-13{fill:#1d262d;}.cls-11{opacity:0.1;}.cls-11,.cls-13,.cls-17,.cls-24,.cls-27{mix-blend-mode:multiply;}.cls-12{fill:#215b74;}.cls-13,.cls-17,.cls-24{opacity:0.2;}.cls-14,.cls-26{fill:#fff;}.cls-15{fill:#dc894e;}.cls-16{clip-path:url(#clip-path);}.cls-17{fill:#cc2a3a;}.cls-19{fill:#23809b;}.cls-20{clip-path:url(#clip-path-2);}.cls-21{clip-path:url(#clip-path-3);}.cls-22{clip-path:url(#clip-path-4);}.cls-23{clip-path:url(#clip-path-5);}.cls-24,.cls-27{fill:#d15579;}.cls-25{clip-path:url(#clip-path-6);}.cls-26{opacity:0.43;}.cls-27{opacity:0.5;}.cls-28{clip-path:url(#clip-path-7);}.cls-29{fill:#ffaa4d;}.cls-30{fill:#27305c;}.cls-31{clip-path:url(#clip-path-8);}.cls-32{fill:#ffa690;}.cls-33{fill:#0a303e;}.cls-34{fill:#e15c56;}</style><clipPath id="clip-path" transform="translate(0.083 -43)"><rect class="cls-1" x="268.62" y="100.431" width="82.294" height="27.665"/></clipPath><clipPath id="clip-path-2" transform="translate(0.083 -43)"><path class="cls-2" d="M67.668,408.22l-1.96,9.7s-12.369,2.687-13.115,5.522,25.971.9,25.971.9L81.4,408.22"/></clipPath><clipPath id="clip-path-3" transform="translate(0.083 -43)"><path class="cls-2" d="M134.836,408.22l-.309,9.7s12.368,2.687,13.115,5.522-25.972.9-25.972.9l-.566-16.12"/></clipPath><clipPath id="clip-path-4" transform="translate(0.083 -43)"><path class="cls-3" d="M84.608,294.72s-12.74,72.155-18.9,115.332c13.237,1.456,16.021.569,16.021.569L106.311,322.4H117.1c.8.852,3.228,88.217,3.228,88.217s11.107,1.644,15.481-.626c0,0,5-67.238,6.339-103.7Z"/></clipPath><clipPath id="clip-path-5" transform="translate(0.083 -43)"><path class="cls-4" d="M119.812,220.346s-13.966.8-17.841,4.544S89.819,254.1,84.608,294.72c20.8,21.938,57.544,11.577,57.544,11.577s1.869-74.017-.1-77.74C138.276,221.439,119.812,220.346,119.812,220.346Z"/></clipPath><clipPath id="clip-path-6" transform="translate(0.083 -43)"><path class="cls-5" d="M84.649,202.714H108.9a0,0,0,0,1,0,0V338.979a7.384,7.384,0,0,1-7.384,7.384H92.033a7.384,7.384,0,0,1-7.384-7.384V202.714A0,0,0,0,1,84.649,202.714Z" transform="translate(334.013 105.855) rotate(74.004)"/></clipPath><clipPath id="clip-path-7" transform="translate(0.083 -43)"><polygon class="cls-6" points="162.476 243.089 185.008 249.243 169.159 266.401 162.476 243.089"/></clipPath><clipPath id="clip-path-8" transform="translate(0.083 -43)"><polyline class="cls-7" points="109.436 203.105 112.18 224.125 122.991 233.329 131.998 224.125 131.998 210.577"/></clipPath></defs><g class="cls-8"><g id="OBJECTS"><path class="cls-9" d="M315.607,113.637c-14.99,2.829-30.26-3.059-43.562-10.526-18.515-10.394-35.04-23.969-53.019-35.264s-38.182-20.469-59.415-20.508S116.1,58.221,107.734,77.734c-8.874,20.692-.638,44.726-4.48,66.91-6.231,35.974-42.689,61-48.768,97C51,262.261,58.335,283.514,70.01,300.859c24.844,36.907,71.253,58.848,115.236,52.148,27.992-4.264,53.51-19.123,74.756-37.841S298.71,273.9,316.031,251.5" transform="translate(0.083 -43)"/><path class="cls-10" d="M328.4,373.047a190.748,190.748,0,0,1-14.5-19.682c-4.226-6.581-8.1-13.569-9.643-21.238-2.067-10.3.237-20.947,3.093-31.056,3.276-11.6,7.366-23.142,14.174-33.088s16.625-18.246,28.3-21.226c9.508-2.426,19.605-1.236,29.218-3.2,18.605-3.806,32.98-18.946,42.332-35.475,4.926-8.708,9.489-18.667,18.547-22.917,10.62-4.983,24.108.529,30.613,10.292s7.04,22.512,4.365,33.934-8.226,21.924-13.262,32.519-9.673,21.7-10.3,33.412c-1.032,19.324,8.944,38.3,6.2,57.458-1.54,10.766-7.046,20.644-13.966,29.034-5.746,6.966-12.628,13.153-20.773,17.052-12.193,5.836-26.569,6.136-39.621,2.614s-24.9-10.636-35.5-19.029" transform="translate(0.083 -43)"/><ellipse class="cls-11" cx="249.906" cy="382.283" rx="221.035" ry="12.484"/><rect class="cls-12" x="190.266" y="61.108" width="239.168" height="319.075"/><rect class="cls-13" x="204.903" y="82.613" width="209.893" height="285.829"/><rect class="cls-14" x="204.903" y="77.731" width="209.893" height="285.829"/><polygon class="cls-15" points="189.215 80.967 189.215 60.057 210.125 60.057 189.215 80.967"/><polygon class="cls-15" points="430.484 80.967 430.484 60.057 409.574 60.057 430.484 80.967"/><polygon class="cls-15" points="189.215 361.139 189.215 382.049 210.125 382.049 189.215 361.139"/><polygon class="cls-15" points="430.484 361.139 430.484 382.049 409.574 382.049 430.484 361.139"/><path class="cls-1" d="M309.767,111.968h0c-8.253,0-14.943,3.816-14.943-4.436v-1.267a14.942,14.942,0,0,1,14.943-14.942h0a14.942,14.942,0,0,1,14.942,14.942v1.267C324.709,115.784,318.019,111.968,309.767,111.968Z" transform="translate(0.083 -43)"/><rect class="cls-13" x="270.826" y="80.967" width="78.047" height="7.022"/><rect class="cls-1" x="268.703" y="57.431" width="82.294" height="27.665"/><g class="cls-16"><rect class="cls-17" x="260.481" y="72.631" width="100.923" height="15.859"/></g><rect class="cls-18" x="225.901" y="130.69" width="28.715" height="28.715"/><path class="cls-18" d="M257.574,205.446h-34.8v-34.8h34.8ZM223.828,204.4h32.7V171.7h-32.7Z" transform="translate(0.083 -43)"/><rect class="cls-18" x="225.901" y="174.686" width="28.715" height="28.715"/><path class="cls-18" d="M257.574,249.442h-34.8v-34.8h34.8Zm-33.746-1.05h32.7V215.7h-32.7Z" transform="translate(0.083 -43)"/><rect class="cls-18" x="225.901" y="218.683" width="28.715" height="28.715"/><path class="cls-18" d="M257.574,293.439h-34.8v-34.8h34.8Zm-33.746-1.05h32.7v-32.7h-32.7Z" transform="translate(0.083 -43)"/><path class="cls-19" d="M237.615,198.1l-16.578-16.4a2.922,2.922,0,1,1,4.11-4.154l12.236,12.107L256.8,168.206a2.921,2.921,0,0,1,4.331,3.921Z" transform="translate(0.083 -43)"/><path class="cls-19" d="M237.615,242.431l-16.578-16.4a2.922,2.922,0,1,1,4.11-4.154l12.236,12.108L256.8,212.533a2.921,2.921,0,0,1,4.331,3.922Z" transform="translate(0.083 -43)"/><path class="cls-19" d="M237.615,285.708l-16.578-16.4a2.922,2.922,0,1,1,4.11-4.154l12.236,12.107L256.8,255.81a2.921,2.921,0,0,1,4.331,3.922Z" transform="translate(0.083 -43)"/><rect class="cls-18" x="225.901" y="262.68" width="28.715" height="28.715"/><path class="cls-18" d="M257.574,337.436h-34.8v-34.8h34.8Zm-33.746-1.051h32.7v-32.7h-32.7Z" transform="translate(0.083 -43)"/><rect class="cls-18" x="225.901" y="306.676" width="28.715" height="28.715"/><path class="cls-18" d="M257.574,381.432h-34.8v-34.8h34.8Zm-33.746-1.05h32.7v-32.7h-32.7Z" transform="translate(0.083 -43)"/><rect class="cls-19" x="268.049" y="134.992" width="127.076" height="3.465"/><rect class="cls-19" x="268.049" y="143.315" width="127.076" height="3.465"/><rect class="cls-19" x="268.049" y="151.637" width="39.285" height="3.465"/><rect class="cls-19" x="268.049" y="178.435" width="127.076" height="3.465"/><rect class="cls-19" x="268.049" y="186.758" width="127.076" height="3.466"/><rect class="cls-19" x="268.049" y="195.08" width="83.036" height="3.466"/><rect class="cls-19" x="268.049" y="221.878" width="127.076" height="3.465"/><rect class="cls-19" x="268.049" y="230.201" width="108.691" height="3.466"/><rect class="cls-19" x="268.049" y="238.524" width="39.285" height="3.465"/><rect class="cls-19" x="268.049" y="265.321" width="127.076" height="3.466"/><rect class="cls-19" x="268.049" y="273.644" width="64.042" height="3.465"/><rect class="cls-19" x="268.049" y="308.764" width="127.076" height="3.465"/><rect class="cls-19" x="268.049" y="317.087" width="127.076" height="3.466"/><rect class="cls-19" x="268.049" y="325.41" width="92.657" height="3.465"/><rect class="cls-19" x="249.618" y="99.645" width="120.815" height="8.563"/><path class="cls-14" d="M313.205,97.987a3.439,3.439,0,1,1-3.438-3.439A3.439,3.439,0,0,1,313.205,97.987Z" transform="translate(0.083 -43)"/><path class="cls-2" d="M67.668,408.22l-1.96,9.7s-12.369,2.687-13.115,5.522,25.971.9,25.971.9L81.4,408.22" transform="translate(0.083 -43)"/><g class="cls-20"><path class="cls-11" d="M63.532,403.9a2.96,2.96,0,0,0-1.049,2.679,5.244,5.244,0,0,0,1.252,2.692,12.95,12.95,0,0,0,6.272,3.829,25.044,25.044,0,0,0,6.955,1.153c2.934.067,6.028-.451,8.307-2.3s3.427-5.3,1.972-7.846a8.434,8.434,0,0,0-3.632-3.057,25.988,25.988,0,0,0-8.222-2.637" transform="translate(0.083 -43)"/></g><path class="cls-2" d="M134.836,408.22l-.309,9.7s12.368,2.687,13.115,5.522-25.972.9-25.972.9l-.566-16.12" transform="translate(0.083 -43)"/><g class="cls-21"><path class="cls-11" d="M121.648,403.073a12.77,12.77,0,0,0-4.574,4.513,6.943,6.943,0,0,0-1.092,3.264,3.677,3.677,0,0,0,1.332,3.069,4.4,4.4,0,0,0,2,.738,34.159,34.159,0,0,0,5.963.455,16.565,16.565,0,0,0,9.652-3.906,11.147,11.147,0,0,0,3.282-12.793" transform="translate(0.083 -43)"/></g><path class="cls-7" d="M189.751,183.448s-9.183-2.86-8.989-5.523,6.383-.488,6.383-.488-3.445-12.679-1.965-13.709,3.717,6.9,3.717,6.9.427-7.734,2.425-7.589,1.615,6.343,1.615,6.343,2.232-4.926,4.181-4.115-1.258,6.185-1.258,6.185,4.951-2.8,5.729-1.459-3.112,5.822-3.112,5.822,4.807,4.532-.987,13.227c-1.589-.667-6.1-2.751-8.45-2.262Z" transform="translate(0.083 -43)"/><path class="cls-4" d="M130.178,221.94s41.55,3.673,57.437-36.617c11.347-1.709,11.347,6.3,11.347,6.3s-15.712,59-64.458,51.271" transform="translate(0.083 -43)"/><path class="cls-3" d="M84.608,294.72s-12.74,72.155-18.9,115.332c13.237,1.456,16.021.569,16.021.569L106.311,322.4H117.1c.8.852,3.228,88.217,3.228,88.217s11.107,1.644,15.481-.626c0,0,5-67.238,6.339-103.7Z" transform="translate(0.083 -43)"/><g class="cls-22"><path class="cls-11" d="M59.082,295.454a92.725,92.725,0,0,0,123.775-9.779c-38.738-2.817-78.723-5.076-115.419,7.651" transform="translate(0.083 -43)"/></g><path class="cls-4" d="M119.812,220.346s-13.966.8-17.841,4.544S89.819,254.1,84.608,294.72c20.8,21.938,57.544,11.577,57.544,11.577s1.869-74.017-.1-77.74C138.276,221.439,119.812,220.346,119.812,220.346Z" transform="translate(0.083 -43)"/><g class="cls-23"><path class="cls-24" d="M101.543,295.523c21.591,1.739,39.706-9.215,47.5-15.256,1.531-1.187,3.686-1.343,5.163-2.6a5.545,5.545,0,0,0,2.113-5.117c-.619-2.985-4.127-4.248-7.122-4.82-14.274-2.727-28.989-1.684-43.11,1.43-6.287,1.386-34.932,5.935-25.2,17.413C85.082,291.518,95.267,295.017,101.543,295.523Z" transform="translate(0.083 -43)"/></g><path class="cls-3" d="M142.152,306.3" transform="translate(0.083 -43)"/><path class="cls-5" d="M84.649,202.714H108.9a0,0,0,0,1,0,0V338.979a7.384,7.384,0,0,1-7.384,7.384H92.033a7.384,7.384,0,0,1-7.384-7.384V202.714A0,0,0,0,1,84.649,202.714Z" transform="translate(334.096 62.855) rotate(74.004)"/><g class="cls-25"><rect class="cls-26" x="123.989" y="255.761" width="51.045" height="4.515" transform="translate(356.42 0.192) rotate(74.004)"/><rect class="cls-26" x="17.974" y="286.153" width="51.045" height="4.515" transform="translate(308.836 124.119) rotate(74.003)"/><rect class="cls-12" x="-1.045" y="277.031" width="51.045" height="36.466" transform="translate(301.646 147.366) rotate(74.004)"/><rect class="cls-27" x="92.363" y="205.265" width="24.493" height="170.073" transform="translate(354.925 66.741) rotate(74.004)"/><rect class="cls-24" x="82.56" y="171.067" width="24.493" height="170.073" transform="translate(314.949 51.391) rotate(74.003)"/></g><polygon class="cls-6" points="162.559 200.089 185.091 206.243 169.242 223.401 162.559 200.089"/><g class="cls-28"><circle class="cls-19" cx="191.341" cy="247.771" r="14.606" transform="translate(-81.656 51.706) rotate(-23.052)"/></g><path class="cls-7" d="M99.2,279.251s6.9-.357,9.993.951,4.591,2.081,4.591,2.081l6.171-1.769s-1.49,8.125-8.866,8.72A37.963,37.963,0,0,1,97.412,287.7Z" transform="translate(0.083 -43)"/><path class="cls-4" d="M111.829,221.439s-43.576,2.686-47.256,41.16c-2.531,26.46,34.366,27.8,34.366,27.8l1.728-11.727s-15.492-6.417-15.492-15.892,16.8-16.483,16.8-16.483Z" transform="translate(0.083 -43)"/><path class="cls-29" d="M120.322,219.711a50.593,50.593,0,0,0-15.157,2.708l18,15.285,14.5-15.875S132.715,219.711,120.322,219.711Z" transform="translate(0.083 -43)"/><path class="cls-30" d="M110.421,208.914s-6.516.494-8.785-1.568c-4.582-4.161-7.838-28.032-8.01-33.047s5.8-12.11,12.729-12.15c.991-7.378,5.11-5.1,5.11-5.1s-1.939-3.1.5-5.325a50.955,50.955,0,0,1,2.173,4.68s3.846-3.161,12.563-1.551,14.1-2.567,16.161,1.644,5.445,17.12-.2,19.578S107.826,193.938,110.421,208.914Z" transform="translate(0.083 -43)"/><polyline class="cls-7" points="109.519 160.105 112.263 181.125 123.074 190.329 132.081 181.125 132.081 167.577"/><g class="cls-31"><path class="cls-24" d="M119.021,192.788A7.464,7.464,0,0,0,112.883,197a15.111,15.111,0,0,0-1.345,7.606,17,17,0,0,0,1.228,6.16,15.882,15.882,0,0,0,14.782,8.83,9.766,9.766,0,0,0,8.121-5.7c1.442-3.6.139-7.768-1.984-11.017-2.444-3.74-6.138-6.845-10.517-7.73-1.872-.379-4.024-.267-5.406,1.052" transform="translate(0.083 -43)"/></g><path class="cls-7" d="M113.447,166.405c-7.243,3.1-14.139,29.858-5.116,41.392s30.639,9.35,38.154.557C152.606,201.194,143.627,153.5,113.447,166.405Z" transform="translate(0.083 -43)"/><path class="cls-32" d="M134.889,182.507c-1.27.607,1,13.138,1,13.138,1.716.222,7.06-2.632,7.06-3.753C142.953,191.892,137.306,181.353,134.889,182.507Z" transform="translate(0.083 -43)"/><path class="cls-30" d="M99.39,193.8c.117-2.1,1.914-3.742,3.832-4.6s4.925,4.049,7.022,3.938c3.418-.181,6.215-1.854,6.593-3.245.268-.985.04-12.563,1.49-14.222,2.468-2.823,6.726-2.976,10.476-2.947s8.03-.215,10.4-3.124a4.706,4.706,0,0,0,1.067-2.324,5.418,5.418,0,0,0-1.2-3.794c-2.751-3.76-7.872-5.025-12.524-4.766a28.4,28.4,0,0,0-19.7,10.017,32.914,32.914,0,0,0-7.566,20.936" transform="translate(0.083 -43)"/><path class="cls-7" d="M111.481,195.142s.9-13.992-6.283-11.97-5.484,16.1,2.691,15.83" transform="translate(0.083 -43)"/><path class="cls-30" d="M123.057,182.12c-.323.709.6,2.592,1.61,2.439s5.945-.792,6.439-1.952a2.362,2.362,0,0,0-1.044-2.822C129.378,179.547,123.456,181.24,123.057,182.12Z" transform="translate(0.083 -43)"/><path class="cls-30" d="M138.5,178.346c-.359.669.264,2.643,1.173,2.6s5.344-.124,5.9-1.222a2.534,2.534,0,0,0-.632-2.921C144.358,176.494,138.941,177.516,138.5,178.346Z" transform="translate(0.083 -43)"/><path class="cls-33" d="M129.462,190.385a1.678,1.678,0,0,0,1.17.011,1.642,1.642,0,0,0,1.328-1.26,3.81,3.81,0,0,0-.41-2.161,4.28,4.28,0,0,0-.6-1,1.313,1.313,0,0,0-2.192-.018C128.112,186.923,128.183,189.812,129.462,190.385Z" transform="translate(0.083 -43)"/><path class="cls-33" d="M141.639,187.441a1.672,1.672,0,0,0,1.17.01,1.64,1.64,0,0,0,1.328-1.259,3.81,3.81,0,0,0-.41-2.161,4.308,4.308,0,0,0-.6-1,1.314,1.314,0,0,0-2.192-.017C140.289,183.979,140.361,186.868,141.639,187.441Z" transform="translate(0.083 -43)"/><path class="cls-32" d="M109.428,189.249a4.238,4.238,0,0,0-2.243-3.443,2.9,2.9,0,0,0-2.884.053,1.913,1.913,0,0,0-.527,2.643c.32.4.843.654.993,1.142a2.088,2.088,0,0,1-.321,1.406,2.67,2.67,0,0,0,.158,2.893,1.765,1.765,0,0,0,1.709.459C108.144,193.9,109.552,190.982,109.428,189.249Z" transform="translate(0.083 -43)"/><path class="cls-7" d="M105.6,280.347s5.769-2.648,7.235-2.837,2.222,1.123,1.843,1.885-4.49,3.221-4.49,3.221" transform="translate(0.083 -43)"/><circle class="cls-34" cx="453.748" cy="107.372" r="6.24"/><path class="cls-12" d="M448.122,85.371a5.952,5.952,0,1,1-5.952-5.952A5.952,5.952,0,0,1,448.122,85.371Z" transform="translate(0.083 -43)"/><path class="cls-1" d="M393.687,55.561a4.625,4.625,0,1,1-6.541,0A4.624,4.624,0,0,1,393.687,55.561Z" transform="translate(0.083 -43)"/><circle class="cls-1" cx="464.613" cy="243.941" r="4.625"/><path class="cls-1" d="M349.3,47.379A4.38,4.38,0,1,1,344.924,43,4.379,4.379,0,0,1,349.3,47.379Z" transform="translate(0.083 -43)"/><path class="cls-1" d="M42.8,348.763a4.379,4.379,0,1,1-4.379-4.38A4.378,4.378,0,0,1,42.8,348.763Z" transform="translate(0.083 -43)"/><path class="cls-19" d="M380.9,87.492a2.121,2.121,0,1,1-2.121-2.121A2.121,2.121,0,0,1,380.9,87.492Z" transform="translate(0.083 -43)"/><circle class="cls-19" cx="438.492" cy="2.19" r="2.19"/><circle class="cls-19" cx="478.688" cy="137.344" r="2.19"/><circle class="cls-15" cx="266.399" cy="20.259" r="4.428"/><circle class="cls-19" cx="154.966" cy="72.159" r="3.901"/><path class="cls-1" d="M158.784,76.958a5.243,5.243,0,1,1-5.243-5.243A5.243,5.243,0,0,1,158.784,76.958Z" transform="translate(0.083 -43)"/><path class="cls-1" d="M81.4,132.517a5.039,5.039,0,1,1-5.038-5.038A5.038,5.038,0,0,1,81.4,132.517Z" transform="translate(0.083 -43)"/><path class="cls-12" d="M132,117.268a3,3,0,1,1-3-3A3,3,0,0,1,132,117.268Z" transform="translate(0.083 -43)"/><path class="cls-12" d="M67.453,326.564a3,3,0,1,1-3.005-3A3,3,0,0,1,67.453,326.564Z" transform="translate(0.083 -43)"/><path class="cls-15" d="M84.608,83.543a4.123,4.123,0,1,1-4.123-4.124A4.123,4.123,0,0,1,84.608,83.543Z" transform="translate(0.083 -43)"/><path class="cls-34" d="M41.938,196.538a3.517,3.517,0,1,1-3.517-3.518A3.517,3.517,0,0,1,41.938,196.538Z" transform="translate(0.083 -43)"/></g></g></svg>